<?xml version="1.0" encoding="iso-8859-1"?>
<!-- Generator: Adobe Illustrator 19.0.0, SVG Export Plug-In . SVG Version: 6.00 Build 0)  -->
<svg version="1.1" id="Capa_1" xmlns="http://www.w3.org/2000/svg" xmlns:xlink="http://www.w3.org/1999/xlink" x="0px" y="0px"
	 viewBox="0 0 504 504" style="enable-background:new 0 0 504 504;" xml:space="preserve">
<path style="fill:#353B44;" d="M472,56H360.144c-4.424,0-8,3.576-8,8s3.576,8,8,8H472c8.824,0,16,7.176,16,16v104
	c0,8.824-7.176,16-16,16c-4.424,0-8,3.576-8,8s3.576,8,8,8c17.648,0,32-14.352,32-32V88C504,70.352,489.648,56,472,56z"/>
<path style="fill:#434A54;" d="M472,216v16h-24v-24c0-2.72-0.232-5.44-0.8-8H472V216z"/>
<path style="fill:#5D9CEC;" d="M336,400l24-8l24,8l16-16h32c26.56,0,48,21.52,48,48v2.32V472c0,8.88-7.12,16-16,16H256
	c-8.872,0-16-7.12-16-16v-37.68V432c0-26.48,21.448-48,48-48h32L336,400z"/>
<path style="fill:#4A89DC;" d="M432,384h-32c26.56,0,48,21.52,48,48v2.32V472c0,8.88-7.12,16-16,16h32c8.88,0,16-7.12,16-16v-37.68
	V432C480,405.52,458.56,384,432,384z"/>
<path style="fill:#F5F7FA;" d="M360,368c14.408,0,28-3.44,40-9.6V384l-16,16l-24-8l-24,8l-16-16v-25.6C332,364.56,345.6,368,360,368
	z"/>
<path style="fill:#EAC6BB;" d="M292.088,336C279.528,320.808,272,301.28,272,280v-32l24-24c0,0,29.68,16,64,16c34.24,0,64-16,64-16
	l24,24v32v0.08c0,34.168-19.512,63.768-48,78.32c-12,6.168-25.592,9.6-40,9.6c-14.4,0-28-3.44-40-9.6
	C309.2,352.88,299.768,345.2,292.088,336z"/>
<path style="fill:#D3B1A9;" d="M424,224c0,0-2.928,1.568-8,3.736V280v0.08c0,34.168-19.512,63.768-48,78.32
	c-7.432,3.824-15.528,6.448-24,8c5.208,0.952,10.52,1.6,16,1.6c14.408,0,28-3.44,40-9.6c28.488-14.552,48-44.16,48-78.32V280v-32
	L424,224z"/>
<path style="fill:#965353;" d="M448,232v16l-24-24c0,0-29.76,16-64,16c-34.32,0-64-16-64-16l-24,24v-40c0-39.76,32.24-72,72-72
	h16.168H408v32c19.36,0,35.52,13.76,39.2,32c0.56,2.56,0.8,5.28,0.8,8V232z"/>
<path style="fill:#844747;" d="M447.2,200c-3.68-18.24-19.84-32-39.2-32v-32h-32v48c19.36,0,35.52,5.76,39.2,24
	c0.56,2.56,0.8,5.28,0.8,8v11.736c5.072-2.168,8-3.736,8-3.736l24,24v-16v-24C448,205.28,447.768,202.56,447.2,200z"/>
<rect x="0.168" y="48" style="fill:#AAB2BD;" width="23.832" height="288"/>
<path style="fill:#656D78;" d="M360.168,64v72H344c-39.76,0-72,32.24-72,72v40v32c0,21.28,7.52,40.808,20.088,56H24V48h336h0.168V64
	z"/>
<path style="fill:#434A54;" d="M360,48h-31.832v89.808C333.272,136.656,338.552,136,344,136h16.168V64V48H360z"/>
<path style="fill:#CCD1D9;" d="M360,48H24H0.168H0V32c0-8.8,7.128-16,16-16h328c8.88,0,16,7.2,16,16V48z"/>
<path style="fill:#AAB2BD;" d="M344,16h-32c8.88,0,16,7.2,16,16v16h32V32C360,23.2,352.88,16,344,16z"/>
<path style="fill:#ED5565;" d="M24.24,40c-4.424,0-8.04-3.576-8.04-8s3.536-8,7.952-8h0.088c4.416,0,8,3.576,8,8S28.656,40,24.24,40
	z"/>
<path style="fill:#FFCE54;" d="M48.24,40c-4.424,0-8.04-3.576-8.04-8s3.536-8,7.952-8h0.088c4.416,0,8,3.576,8,8S52.656,40,48.24,40
	z"/>
<path style="fill:#8CC152;" d="M72.24,40c-4.424,0-8.04-3.576-8.04-8s3.536-8,7.952-8h0.088c4.416,0,8,3.576,8,8S76.656,40,72.24,40
	z"/>
<path style="fill:#FFCE54;" d="M192,88H56c-4.424,0-8-3.576-8-8s3.576-8,8-8h136c4.424,0,8,3.576,8,8S196.424,88,192,88z"/>
<path style="fill:#AC92EC;" d="M160,120H72c-4.424,0-8-3.576-8-8s3.576-8,8-8h88c4.424,0,8,3.576,8,8S164.424,120,160,120z"/>
<path style="fill:#A0D468;" d="M152,280.096H72c-4.424,0-8-3.576-8-8s3.576-8,8-8h80c4.424,0,8,3.576,8,8
	S156.424,280.096,152,280.096z"/>
<path style="fill:#AC92EC;" d="M208,120h-16c-4.424,0-8-3.576-8-8s3.576-8,8-8h16c4.424,0,8,3.576,8,8S212.424,120,208,120z"/>
<path style="fill:#FFCE54;" d="M104,312H56c-4.424,0-8-3.576-8-8s3.576-8,8-8h48c4.424,0,8,3.576,8,8S108.424,312,104,312z"/>
<g>
	<path style="fill:#5D9CEC;" d="M120,152H88c-4.424,0-8-3.576-8-8s3.576-8,8-8h32c4.424,0,8,3.576,8,8S124.424,152,120,152z"/>
	<path style="fill:#5D9CEC;" d="M232,152h-80c-4.424,0-8-3.576-8-8s3.576-8,8-8h80c4.424,0,8,3.576,8,8S236.424,152,232,152z"/>
</g>
<path style="fill:#A0D468;" d="M224,184H88c-4.424,0-8-3.576-8-8s3.576-8,8-8h136c4.424,0,8,3.576,8,8S228.424,184,224,184z"/>
<path style="fill:#ED5565;" d="M176,216H88c-4.424,0-8-3.576-8-8s3.576-8,8-8h88c4.424,0,8,3.576,8,8S180.424,216,176,216z"/>
<g>
	<path style="fill:#AC92EC;" d="M216,248h-80c-4.424,0-8-3.576-8-8s3.576-8,8-8h80c4.424,0,8,3.576,8,8S220.424,248,216,248z"/>
	<path style="fill:#AC92EC;" d="M104,248H88c-4.424,0-8-3.576-8-8s3.576-8,8-8h16c4.424,0,8,3.576,8,8S108.424,248,104,248z"/>
</g>
<g>
</g>
<g>
</g>
<g>
</g>
<g>
</g>
<g>
</g>
<g>
</g>
<g>
</g>
<g>
</g>
<g>
</g>
<g>
</g>
<g>
</g>
<g>
</g>
<g>
</g>
<g>
</g>
<g>
</g>
</svg>
